<svg width="635" height="175" viewBox="0 0 635 175" fill="none" xmlns="http://www.w3.org/2000/svg">
<path d="M42.1562 66.1335C50.4261 66.1335 57.5362 67.7303 63.4865 70.924C69.4704 74.084 74.0592 78.6392 77.2528 84.5895C80.4801 90.5398 82.0938 97.7003 82.0938 106.071C82.0938 114.072 80.4801 121.064 77.2528 127.048C74.0256 133.032 69.4704 137.688 63.5874 141.016C57.7043 144.344 50.7623 146.009 42.7614 146.009C36.9119 146.009 31.6172 145.101 26.8771 143.286C22.1371 141.47 18.0862 138.848 14.7244 135.419C11.3627 131.956 8.77415 127.771 6.95881 122.863C5.14347 117.955 4.2358 112.425 4.2358 106.273V99.8182H73.4205V115.148H29.8523C29.9195 117.366 30.491 119.333 31.5668 121.048C32.6425 122.728 34.1049 124.056 35.9538 125.031C37.8028 125.973 39.8703 126.443 42.1562 126.443C44.4422 126.443 46.5097 125.973 48.3587 125.031C50.2412 124.056 51.754 122.728 52.897 121.048C54.04 119.333 54.6283 117.366 54.6619 115.148V98.608C54.6619 96.1203 54.1409 93.9015 53.0987 91.9517C52.0566 90.0019 50.5606 88.4723 48.6108 87.3629C46.661 86.2535 44.3078 85.6989 41.5511 85.6989C39.6686 85.6989 37.9205 85.9678 36.3068 86.5057C34.6932 87.0436 33.3149 87.8168 32.1719 88.8253C31.0289 89.8338 30.1884 91.0777 29.6506 92.5568H4.2358C5.10985 87.178 7.17732 82.522 10.4382 78.5888C13.6991 74.6219 18.0021 71.5627 23.3473 69.4112C28.7261 67.2261 34.9957 66.1335 42.1562 66.1335ZM370.052 146.21C365.11 146.21 360.74 145.403 356.941 143.79C353.176 142.143 350.218 139.655 348.066 136.327C345.915 132.999 344.839 128.763 344.839 123.619C344.839 119.384 345.562 115.77 347.007 112.778C348.453 109.752 350.47 107.281 353.059 105.365C355.647 103.449 358.656 101.987 362.085 100.978C365.547 99.9695 369.279 99.3139 373.279 99.0114C377.616 98.6752 381.096 98.2718 383.718 97.8011C386.373 97.2969 388.29 96.6077 389.466 95.7337C390.643 94.826 391.231 93.6326 391.231 92.1534V91.9517C391.231 89.9347 390.458 88.3883 388.912 87.3125C387.365 86.2367 385.382 85.6989 382.961 85.6989C380.306 85.6989 378.137 86.2872 376.456 87.4638C374.809 88.6068 373.817 90.3717 373.481 92.7585H347.865C348.201 88.0521 349.697 83.7154 352.353 79.7486C355.042 75.7481 358.958 72.5545 364.102 70.1676C369.245 67.7472 375.666 66.5369 383.365 66.5369C388.912 66.5369 393.887 67.1925 398.291 68.5036C402.695 69.781 406.443 71.5795 409.536 73.8991C412.629 76.1851 414.982 78.8745 416.596 81.9673C418.243 85.0265 419.066 88.3546 419.066 91.9517V145H393.047V134.108H392.441C390.895 136.999 389.012 139.335 386.794 141.117C384.609 142.899 382.104 144.193 379.28 145C376.49 145.807 373.414 146.21 370.052 146.21ZM379.129 128.662C381.247 128.662 383.23 128.225 385.079 127.351C386.962 126.477 388.491 125.216 389.668 123.569C390.845 121.922 391.433 119.921 391.433 117.568V111.114C390.693 111.416 389.903 111.702 389.063 111.971C388.256 112.24 387.382 112.492 386.441 112.727C385.533 112.963 384.558 113.181 383.516 113.383C382.507 113.585 381.449 113.769 380.339 113.938C378.188 114.274 376.423 114.828 375.044 115.602C373.7 116.341 372.691 117.266 372.019 118.375C371.38 119.451 371.061 120.661 371.061 122.006C371.061 124.157 371.817 125.804 373.33 126.947C374.843 128.09 376.776 128.662 379.129 128.662ZM426.454 88.321V67.5455H501.488V88.321H476.88V145H450.658V88.321H426.454Z" fill="black"/>
<path d="M93.4522 145V67.5455H121.287V95.179H126.128L142.668 67.5455H174.537L149.728 106.676L174.739 145H142.466L127.54 120.997H121.287V145H93.4522ZM215.156 146.412C206.886 146.412 199.759 144.832 193.775 141.672C187.825 138.478 183.236 133.906 180.009 127.956C176.815 121.972 175.218 114.812 175.218 106.474C175.218 98.4735 176.832 91.4811 180.059 85.4972C183.286 79.5133 187.842 74.8572 193.725 71.5291C199.608 68.201 206.55 66.5369 214.551 66.5369C220.4 66.5369 225.695 67.4446 230.435 69.2599C235.175 71.0753 239.226 73.7143 242.588 77.1768C245.949 80.6058 248.538 84.7744 250.353 89.6825C252.169 94.5907 253.076 100.121 253.076 106.273V112.727H183.892V97.3977H227.46C227.426 95.179 226.855 93.2292 225.745 91.5483C224.669 89.8338 223.207 88.5059 221.358 87.5646C219.543 86.5897 217.475 86.1023 215.156 86.1023C212.903 86.1023 210.836 86.5897 208.953 87.5646C207.071 88.5059 205.558 89.817 204.415 91.4979C203.306 93.1787 202.717 95.1454 202.65 97.3977V113.938C202.65 116.425 203.171 118.644 204.213 120.594C205.255 122.544 206.751 124.073 208.701 125.183C210.651 126.292 213.004 126.847 215.761 126.847C217.677 126.847 219.425 126.578 221.005 126.04C222.619 125.502 223.997 124.729 225.14 123.72C226.283 122.678 227.124 121.434 227.661 119.989H253.076C252.202 125.367 250.135 130.04 246.874 134.007C243.613 137.94 239.293 141 233.914 143.185C228.569 145.336 222.316 146.412 215.156 146.412ZM279.436 174.045C276.243 174.045 273.2 173.793 270.309 173.289C267.418 172.818 264.88 172.163 262.695 171.322L268.746 151.555C271.032 152.362 273.116 152.883 274.999 153.119C276.915 153.354 278.546 153.219 279.89 152.715C281.269 152.211 282.26 151.253 282.865 149.841L283.471 148.429L256.24 67.5455H285.286L297.792 121.199H298.598L311.306 67.5455H340.553L312.314 151.455C310.902 155.724 308.852 159.556 306.162 162.952C303.507 166.381 300.01 169.087 295.674 171.07C291.337 173.054 285.925 174.045 279.436 174.045Z" fill="#AF5DEF"/>
<path d="M594.587 8.03665C595.55 5.74216 598.66 5.74216 599.624 8.03665L606.633 24.7237C607.032 25.6744 607.889 26.3264 608.877 26.4302L626.204 28.2512C628.587 28.5015 629.548 31.5976 627.761 33.2659L614.765 45.4001C614.025 46.0914 613.697 47.1464 613.908 48.1611L617.608 65.9738C618.117 68.4231 615.601 70.3364 613.533 69.0729L598.492 59.8854C598.064 59.6236 597.584 59.4928 597.105 59.4928C596.626 59.4928 596.147 59.6236 595.719 59.8854L580.678 69.0729C578.61 70.3364 576.094 68.4231 576.603 65.9738L580.302 48.1611C580.513 47.1464 580.186 46.0914 579.445 45.4001L566.45 33.2659C564.663 31.5976 565.624 28.5015 568.006 28.2512L585.334 26.4302C586.321 26.3264 587.178 25.6744 587.578 24.7237L594.587 8.03665Z" fill="#AF5DEF"/>
<path d="M557.741 80.4775C558.303 79.1391 560.118 79.1391 560.68 80.4775L564.768 90.2116C565.001 90.7662 565.501 91.1466 566.077 91.2071L576.185 92.2693C577.575 92.4154 578.135 94.2214 577.093 95.1946L569.512 102.273C569.08 102.676 568.889 103.292 569.012 103.883L571.17 114.274C571.467 115.703 570 116.819 568.793 116.082L560.019 110.723C559.77 110.57 559.49 110.494 559.211 110.494C558.931 110.494 558.651 110.57 558.402 110.723L549.628 116.082C548.421 116.819 546.954 115.703 547.251 114.274L549.409 103.883C549.532 103.292 549.341 102.676 548.909 102.273L541.328 95.1946C540.286 94.2214 540.846 92.4154 542.236 92.2693L552.344 91.2071C552.92 91.1466 553.42 90.7662 553.653 90.2116L557.741 80.4775Z" fill="#AF5DEF"/>
<path d="M535.636 4.68805C536.198 3.34959 538.012 3.34959 538.575 4.68805L542.663 14.4222C542.896 14.9767 543.396 15.3571 543.972 15.4176L554.08 16.4798C555.469 16.6259 556.03 18.4319 554.988 19.4051L547.407 26.4834C546.975 26.8866 546.784 27.5021 546.907 28.0939L549.065 38.4847C549.362 39.9134 547.894 41.0296 546.688 40.2926L537.914 34.9331C537.664 34.7804 537.385 34.7042 537.105 34.7042C536.826 34.7042 536.546 34.7804 536.296 34.9331L527.523 40.2926C526.316 41.0296 524.849 39.9134 525.145 38.4847L527.304 28.0939C527.427 27.5021 527.236 26.8866 526.804 26.4834L519.223 19.4051C518.181 18.4319 518.741 16.6259 520.131 16.4798L530.239 15.4176C530.814 15.3571 531.315 14.9767 531.547 14.4222L535.636 4.68805Z" fill="#AF5DEF"/>
</svg>
